<?xml version="1.0" encoding="utf-8"?>
<!-- Generator: Adobe Illustrator 25.2.0, SVG Export Plug-In . SVG Version: 6.00 Build 0)  -->
<svg version="1.1" id="Layer_1" xmlns="http://www.w3.org/2000/svg" xmlns:xlink="http://www.w3.org/1999/xlink" x="0px" y="0px"
	 viewBox="0 0 560 88.9" style="enable-background:new 0 0 560 88.9;" xml:space="preserve">
<style type="text/css">
	.st0{fill:#313D45;}
	.st1{fill:url(#SVGID_1_);}
	.st2{fill:url(#SVGID_2_);}
	.st3{fill:url(#SVGID_3_);}
</style>
<g>
	<g>
		<path class="st0" d="M165.4,43.7c-1.5,0.4-5.9,0.7-8.6,0.7c-6.5,0-11.6-1.8-11.6-10.3V7.6c0-0.6,0.5-1,1-1h5c0.6,0,1,0.5,1,1v26.5
			c0,3.3,1,4.3,3.9,4.3h9.3c0.6,0,1,0.5,1,1v3.2C166.4,43.3,166.1,43.5,165.4,43.7z"/>
		<path class="st0" d="M192.2,32.1h-16.4v0.2c0,2.9,1.2,6.4,6,6.4c3.7,0,7.1-0.3,9.3-0.5c0.1,0,0.1,0,0.2,0c0.5,0,0.9,0.3,0.9,0.8
			v3.3c0,0.8-0.2,1.2-1.1,1.3c-3.3,0.6-5.2,0.9-9.8,0.9c-5,0-12.2-2.7-12.2-12.6v-3.7c0-7.8,4.4-12.8,12.1-12.8
			c7.7,0,12,5.3,12,12.8V31C193.2,31.7,192.9,32.1,192.2,32.1z M186.5,27.2c0-3.9-2.2-6.2-5.3-6.2s-5.4,2.2-5.4,6.2v0.2h10.7V27.2z"
			/>
		<path class="st0" d="M221.1,44h-4.6c-0.6,0-1-0.5-1-1.1V26.5c0-4.4-0.4-5.6-4.3-5.6c-1.7,0-3.6,0.7-5.7,1.8v20.2
			c0,0.6-0.5,1.1-1,1.1h-4.6c-0.6,0-1-0.5-1-1.1V16.6c0-0.6,0.5-1,1-1h4.4c0.6,0,1,0.5,1,1v1.1c2.9-1.9,4.8-2.4,8.1-2.4
			c7.2,0,8.7,4.9,8.7,11.3V43C222.1,43.5,221.7,44,221.1,44z"/>
		<path class="st0" d="M249.8,43.1c-3.1,0.8-6.9,1.3-10.1,1.3c-8.1,0-12-4.8-12-12.6v-3.9c0-7.8,3.9-12.6,12-12.6
			c1.2,0,3,0.1,4.8,0.4V6.8c0-0.6,0.5-1,1-1h4.6c0.6,0,1,0.5,1,1v35C251.1,42.5,250.9,42.8,249.8,43.1z M244.5,21.1
			c-1.4-0.2-3.6-0.4-4.8-0.4c-4.3,0-5.4,3.1-5.4,7.2v3.9c0,4.1,1.1,7.2,5.4,7.2c1.8,0,3.9-0.2,4.8-0.4V21.1z"/>
		<path class="st0" d="M279.9,32.1h-16.4v0.2c0,2.9,1.2,6.4,6,6.4c3.7,0,7.1-0.3,9.3-0.5c0.1,0,0.1,0,0.2,0c0.5,0,0.9,0.3,0.9,0.8
			v3.3c0,0.8-0.2,1.2-1.1,1.3c-3.3,0.6-5.2,0.9-9.8,0.9c-5,0-12.2-2.7-12.2-12.6v-3.7c0-7.8,4.4-12.8,12.1-12.8s12,5.3,12,12.8V31
			C280.9,31.7,280.6,32.1,279.9,32.1z M274.2,27.2c0-3.9-2.2-6.2-5.3-6.2c-3.1,0-5.4,2.2-5.4,6.2v0.2h10.7L274.2,27.2L274.2,27.2z"
			/>
		<path class="st0" d="M300.2,20.9c-2.7,0-4.8,0.7-6.9,1.8v20.2c0,0.6-0.5,1.1-1,1.1h-4.6c-0.6,0-1-0.5-1-1.1V16.6c0-0.6,0.5-1,1-1
			h4.4c0.6,0,1,0.5,1,1v1.1c2.5-1.9,5.2-2.4,7.2-2.4c0.6,0,1,0.5,1,1v3.6C301.2,20.4,300.7,20.9,300.2,20.9z"/>
		<path class="st0" d="M336.2,44h-5c-0.6,0-1-0.5-1-1V27.6h-14.3V43c0,0.6-0.5,1-1,1h-5c-0.6,0-1-0.5-1-1V7.6c0-0.6,0.5-1,1-1h5
			c0.6,0,1,0.4,1,1v13.9h14.3V7.6c0-0.6,0.5-1,1-1h5c0.6,0,1,0.4,1,1V43C337.2,43.5,336.8,44,336.2,44z"/>
		<path class="st0" d="M355.4,44.4c-7.9,0-12-5.3-12-12.5v-4.1c0-7.2,4.1-12.5,12-12.5s12,5.3,12,12.5v4.1
			C367.5,39.1,363.3,44.4,355.4,44.4z M360.8,27.8c0-4.1-1.9-6.8-5.4-6.8s-5.4,2.7-5.4,6.8v4.1c0,4.1,1.9,6.8,5.4,6.8
			s5.4-2.7,5.4-6.8V27.8z"/>
		<path class="st0" d="M408.3,44h-4.6c-0.6,0-1-0.5-1-1.1V25.8c0-3.9-0.8-4.9-3.6-4.9c-1,0-2.9,0.3-4.7,1.3c0.2,1.1,0.2,2.4,0.2,3.6
			v17.1c0,0.6-0.5,1.1-1,1.1H389c-0.6,0-1-0.5-1-1.1V25.8c0-3.9-0.7-4.9-3.5-4.9c-1.1,0-2.6,0.6-4.6,1.7v20.3c0,0.6-0.5,1.1-1,1.1
			h-4.6c-0.6,0-1-0.5-1-1.1V16.6c0-0.6,0.5-1,1-1h4.4c0.6,0,1,0.5,1,1v1.1c2.1-1.4,4.2-2.4,7.2-2.4c2.9,0,4.7,0.9,5.9,2.3
			c2.6-1.4,4.8-2.3,8.3-2.3c6.8,0,8.4,4.7,8.4,10.6V43C409.3,43.5,408.8,44,408.3,44z"/>
		<path class="st0" d="M438,32.1h-16.4v0.2c0,2.9,1.2,6.4,6,6.4c3.7,0,7.1-0.3,9.3-0.5c0.1,0,0.1,0,0.2,0c0.5,0,0.9,0.3,0.9,0.8v3.3
			c0,0.8-0.2,1.2-1.1,1.3c-3.3,0.6-5.2,0.9-9.8,0.9c-5,0-12.2-2.7-12.2-12.6v-3.7c0-7.8,4.4-12.8,12.1-12.8s12,5.3,12,12.8V31
			C439,31.7,438.7,32.1,438,32.1z M432.3,27.2c0-3.9-2.2-6.2-5.3-6.2s-5.4,2.2-5.4,6.2v0.2h10.7L432.3,27.2L432.3,27.2z"/>
		<path class="st0" d="M459.7,30.1c-1.3,0-3.3-0.2-4.5-0.2V43c0,0.6-0.4,1-1,1h-5c-0.6,0-1-0.5-1-1V8.4c0-1,0.6-1.4,1.6-1.5
			c2.6-0.4,6.2-0.7,9.9-0.7c7.7,0,14.5,2.7,14.5,11.6v0.5C474.2,27.2,467.4,30.1,459.7,30.1z M467.2,17.8c0-4.2-2.5-5.8-7.5-5.8
			c-1.1,0-3.6,0.1-4.5,0.2v12c0.8,0.1,3.6,0.2,4.5,0.2c5.4,0,7.5-2,7.5-6V17.8z"/>
		<path class="st0" d="M498.1,44h-4.3c-0.6,0-1-0.5-1-1v-0.8c-2.3,1.4-4.7,2.2-7.1,2.2c-4.2,0-8.7-1.6-8.7-8.4v-0.2
			c0-5.7,3.5-8.7,12.3-8.7h3.2v-2.2c0-3.3-1.5-4.1-4.4-4.1c-3.2,0-6.5,0.2-8.2,0.4c-0.1,0-0.2,0-0.3,0c-0.5,0-0.9-0.2-0.9-0.9v-3.2
			c0-0.6,0.3-0.9,1-1.1c2-0.4,4.9-0.8,8.4-0.8c7.1,0,11.1,3.2,11.1,9.6v18.1C499.1,43.5,498.7,44,498.1,44z M492.5,31.5h-3.2
			c-4.6,0-5.6,1.5-5.6,4.3V36c0,2.5,1.1,3.1,3.6,3.1c1.8,0,3.7-0.6,5.1-1.4v-6.2H492.5z"/>
		<path class="st0" d="M529.6,20.2l-1.7,0.7c0.8,1.2,1.3,2.3,1.3,4v0.4c0,6.3-4.3,9.2-11.9,9.2c-2.7,0-4.5-0.5-5.5-0.9
			c-0.6,0.4-0.9,0.9-0.9,1.3c0,1,0.6,1.4,1.7,1.7l5.9,1.4c6.8,1.6,11.3,2.7,11.3,8v0.4c0,5.1-3.8,7.9-12.3,7.9
			c-8.1,0-12.5-3.1-12.5-8.3v-0.5c0-2.1,1-4.1,2.6-5.5c-1.4-1.1-2.3-2.8-2.3-4.6l0,0c0-1.6,0.7-3.1,2-4.1c-1.5-1.6-2.1-3.4-2.1-5.9
			V25c0-5,3.3-9.3,12-9.3H529c0.8,0,1.4,0.6,1.4,1.4v2.1C530.4,19.8,530.2,19.9,529.6,20.2z M523.2,46c0-1.1-0.7-1.8-5.9-3l-4.5-1.1
			c-0.8,1.1-1.3,1.7-1.3,3.5v0.5c0,2.1,1.3,3.3,6,3.3c4.8,0,5.7-1.1,5.7-2.9V46z M522.6,25c0-2.4-1.1-4.3-5.4-4.3
			c-4.3,0-5.4,1.9-5.4,4.3v0.4c0,1.9,0.8,4,5.4,4c4.2,0,5.4-1.5,5.4-4V25z"/>
		<path class="st0" d="M557.2,32.1h-16.4v0.2c0,2.9,1.2,6.4,6,6.4c3.7,0,7.1-0.3,9.3-0.5c0.1,0,0.1,0,0.2,0c0.5,0,0.9,0.3,0.9,0.8
			v3.3c0,0.8-0.2,1.2-1.1,1.3c-3.3,0.6-5.2,0.9-9.8,0.9c-5,0-12.2-2.7-12.2-12.6v-3.7c0-7.8,4.4-12.8,12.1-12.8
			c7.7,0,12,5.3,12,12.8V31C558.3,31.7,558,32.1,557.2,32.1z M551.6,27.2c0-3.9-2.2-6.2-5.3-6.2s-5.4,2.2-5.4,6.2v0.2h10.7V27.2z"/>
	</g>
</g>
<linearGradient id="SVGID_1_" gradientUnits="userSpaceOnUse" x1="103.5903" y1="13.1324" x2="64.2186" y2="66.595" gradientTransform="matrix(1 0 -6.426497e-02 -1 17.9969 87.214)">
	<stop  offset="0" style="stop-color:#33A3DC"/>
	<stop  offset="0.2711" style="stop-color:#35A6DE"/>
	<stop  offset="0.5632" style="stop-color:#39AEE4"/>
	<stop  offset="0.8641" style="stop-color:#41BDED"/>
	<stop  offset="1" style="stop-color:#44C8F5"/>
</linearGradient>
<path class="st1" d="M133,74c-6.1-17.1-10.7-34.8-13.7-53.1l0,0C103.8,16.6,86,7.6,73.2,1.1c2.1,29.7,7.9,58.7,17.1,86.4
	C90.4,87.5,133,74,133,74z"/>
<linearGradient id="SVGID_2_" gradientUnits="userSpaceOnUse" x1="33.5874" y1="70.0357" x2="67.5363" y2="22.9317" gradientTransform="matrix(1 0 -6.426497e-02 -1 17.9969 87.214)">
	<stop  offset="0" style="stop-color:#FAA61A"/>
	<stop  offset="3.237742e-02" style="stop-color:#FAA31B"/>
	<stop  offset="0.2933" style="stop-color:#F78D1E"/>
	<stop  offset="0.5465" style="stop-color:#F47D20"/>
	<stop  offset="0.7868" style="stop-color:#F37321"/>
	<stop  offset="1" style="stop-color:#F37021"/>
</linearGradient>
<path class="st2" d="M71.8,23.1c-16.3-3.5-31.9-8.9-46.6-14.5l0,0C42,37.2,64.4,67.9,86.6,87.4l0,0C80.7,68.4,74.4,42.7,71.8,23.1z"
	/>
<linearGradient id="SVGID_3_" gradientUnits="userSpaceOnUse" x1="2.5548" y1="48.0226" x2="42.8265" y2="18.8898" gradientTransform="matrix(1 0 -6.426497e-02 -1 17.9969 87.214)">
	<stop  offset="0" style="stop-color:#BCD85F"/>
	<stop  offset="1" style="stop-color:#40BA8D"/>
</linearGradient>
<path class="st3" d="M42.6,42.8c-14-2-26.1-4.5-41.8-8.6l0,0C19.2,54,44.7,77.6,82.6,88.1l0,0C63.1,69.6,48.4,52.7,42.6,42.8
	L42.6,42.8z"/>
<g>
	<g>
		<path class="st0" d="M152.2,71.6c-3.3-0.4-4.5-2.7-5-5.1l-1.3-5.6h2l1.3,5.3c0.5,1.9,1.1,3.9,4.1,3.9s3.5-1.9,3.9-3.9l1-5.3h2
			l-1.1,5.6c-0.5,2.5-1.6,4.8-4.9,5.2l0.2,7.7h-2L152.2,71.6z"/>
		<path class="st0" d="M162.9,71.3c-0.1-3.6,2.2-5.9,6-5.9s6.2,2.2,6.3,5.9v2.4c0.1,3.7-2.2,5.9-6,5.9c-3.9,0-6.2-2.2-6.3-5.9V71.3z
			 M165,73.5c0.1,2.7,1.2,4.5,4.2,4.5s4.1-1.8,4-4.5v-2c-0.1-2.7-1.2-4.5-4.2-4.5s-4.1,1.8-4,4.5V73.5z"/>
		<path class="st0" d="M180,66.3c0-0.3,0.2-0.5,0.6-0.5h1.4l0.2,8.9c0,2.2,0.8,3.4,3.3,3.4c1.5,0,2.8-0.7,4.2-1.7l-0.2-10.6h2
			l0.3,13.5h-1.6l-0.2-1.4c-1.5,1.1-3,1.8-4.6,1.8c-3.3,0-5.1-1.8-5.1-4.6L180,66.3z"/>
		<path class="st0" d="M197.1,65.7h1.6l0.3,2c0.9-1.2,2.4-2.3,4-2.3c0.5,0,0.9,0.1,1.4,0.2l-0.3,1.6c-0.4-0.1-0.8-0.1-1.2-0.1
			c-1.3,0-2.9,1.2-3.8,2.5l0.2,9.8h-2L197.1,65.7z"/>
		<path class="st0" d="M216.6,60.7h6.9c5,0,7.4,2,7.5,6.5l0.1,5.4c0.1,4.4-2.3,6.5-7.2,6.5H217L216.6,60.7z M223.9,77.5
			c4.3,0,5.3-2,5.2-5.2l-0.1-4.8c-0.1-3.1-1.1-5.2-5.4-5.2h-4.9l0.3,15.1L223.9,77.5z"/>
		<path class="st0" d="M235.9,61.8c0-0.7,0.5-1.1,1.3-1.1s1.4,0.5,1.4,1.1c0,0.7-0.6,1.2-1.3,1.2C236.5,63,235.9,62.5,235.9,61.8z
			 M236.2,65.6h2l0.3,13c0,0.3-0.2,0.5-0.6,0.5h-1.4L236.2,65.6z"/>
		<path class="st0" d="M246.4,82.8h4.2c1.9,0,2.8-1.1,2.8-2.6v-2.6c-1.4,1-2.7,1.5-4.3,1.5c-3.4,0-5.5-2-5.6-5.4l-0.1-3.1
			c-0.1-3.4,2-5.4,5.4-5.4c1.6,0,3.1,0.7,4.6,1.8l0.2-1.4h1.6l0.3,14.6c0.1,2.6-1.6,4.3-4.8,4.3h-3.9L246.4,82.8z M245.5,73.3
			c0.1,2.8,1.2,4.2,3.8,4.2c1.5,0,2.8-0.7,4.1-1.5l-0.2-7.4c-1.2-0.8-2.7-1.7-4.2-1.7c-2.6,0-3.7,1.4-3.6,4.2L245.5,73.3z"/>
		<path class="st0" d="M260.4,61.7c0-0.7,0.5-1.1,1.3-1.1s1.4,0.5,1.4,1.1c0,0.7-0.6,1.2-1.3,1.2C261,63,260.5,62.4,260.4,61.7z
			 M260.8,65.5h2l0.3,13c0,0.3-0.2,0.5-0.6,0.5h-1.4L260.8,65.5z"/>
		<path class="st0" d="M268.9,66.9l-2.5-0.2v-1.3h2.5l-0.1-4.4h2l0.1,4.4h3.7v1.4h-3.7l0.2,8.2c0,2,1.1,2.6,2.5,2.6
			c0.7,0,1.4-0.1,2-0.2l0.3,1.6c-0.8,0.2-1.6,0.3-2.4,0.3c-2.7,0-4.5-1.4-4.5-3.9L268.9,66.9z"/>
		<path class="st0" d="M288,77.6c-1.2,1-2.8,1.7-4.6,1.7c-3,0-4.8-1.6-4.9-3.9c-0.1-2.8,2.5-3.9,6.4-3.9h2.8v-1.3
			c0-2.3-1-3.5-3.7-3.4c-1.4,0-2.7,0.2-4.1,0.6l-0.5-1.6c1.5-0.4,2.9-0.7,4.5-0.7c3.8,0,5.7,1.9,5.7,4.7l0.2,9.1h-1.6L288,77.6z
			 M287.7,73H285c-2.7,0-4.5,0.6-4.5,2.4c0,1.4,1,2.3,3,2.3c1.5,0,3.1-0.6,4.2-1.6V73z"/>
		<path class="st0" d="M295,59.8h2l0.3,16.8c0,0.8,0.3,1,0.9,1.1l-0.4,1.5c-1.3-0.1-2.5-0.5-2.5-2.5L295,59.8z"/>
		<path class="st0" d="M312.7,60.5h2.5l4.7,14c0.3,1.1,0.6,1.5,1.3,1.5c0.6,0,0.9-0.4,1.2-1.5l4.1-14h2.5l3.2,18.4h-2L327.9,66
			c-0.1-0.8-0.3-2.1-0.4-3c-0.2,1-0.5,2.2-0.8,3.1l-2.5,8.7c-0.5,1.8-1.3,2.9-3.1,2.9c-1.8,0-2.7-1.1-3.2-2.8l-2.9-8.7
			c-0.3-0.8-0.7-2.1-0.9-3.1c-0.1,1.1-0.2,2.4-0.3,3.3l-1.7,12.7h-2L312.7,60.5z"/>
		<path class="st0" d="M336.2,70.9c-0.1-3.6,2.2-5.9,6-5.9s6.2,2.2,6.3,5.9l0.1,2.4c0.1,3.7-2.2,5.9-6,5.9c-3.9,0-6.2-2.2-6.3-5.9
			L336.2,70.9z M338.3,73.1c0.1,2.7,1.2,4.5,4.2,4.5s4.1-1.8,4-4.5v-2c-0.1-2.7-1.2-4.5-4.2-4.5s-4.1,1.8-4,4.5V73.1z"/>
		<path class="st0" d="M353.4,65.3h1.6l0.3,2c0.9-1.2,2.4-2.3,4-2.3c0.5,0,0.9,0,1.4,0.2l-0.3,1.6c-0.4-0.1-0.8-0.1-1.2-0.1
			c-1.3,0-2.9,1.2-3.8,2.5l0.2,9.8h-2L353.4,65.3z"/>
		<path class="st0" d="M365.1,66.7l-2.5-0.2v-1.3h2.5l-0.1-4.4h2l0.1,4.4h3.7v1.4h-3.7l0.2,8.2c0,2,1.1,2.6,2.5,2.6
			c0.7,0,1.4-0.1,2-0.2l0.3,1.6c-0.8,0.2-1.6,0.3-2.4,0.3c-2.7,0-4.5-1.4-4.5-3.9L365.1,66.7z"/>
		<path class="st0" d="M378.1,82.5h4.2c1.9,0,2.8-1.1,2.8-2.6l-0.1-2.6c-1.4,1-2.7,1.5-4.3,1.5c-3.4,0-5.5-2-5.6-5.4l-0.1-3.1
			c-0.1-3.4,2-5.4,5.4-5.4c1.6,0,3.1,0.7,4.6,1.8l0.2-1.4h1.6l0.3,14.6c0.1,2.6-1.6,4.3-4.8,4.3h-3.9L378.1,82.5z M377.2,73
			c0.1,2.8,1.2,4.2,3.8,4.2c1.5,0,2.8-0.7,4.1-1.5l-0.2-7.4c-1.2-0.8-2.7-1.7-4.2-1.7c-2.6,0-3.7,1.4-3.6,4.2L377.2,73z"/>
		<path class="st0" d="M401.2,77.3c-1.2,1-2.8,1.7-4.6,1.7c-3,0-4.8-1.6-4.9-3.9c-0.1-2.8,2.5-3.9,6.4-3.9h2.8v-1.3
			c0-2.3-1-3.5-3.7-3.4c-1.4,0-2.7,0.2-4.1,0.6l-0.5-1.6c1.5-0.4,2.9-0.7,4.5-0.7c3.8,0,5.7,1.9,5.7,4.7l0.2,9.1h-1.6L401.2,77.3z
			 M400.9,72.7h-2.7c-2.7,0-4.5,0.6-4.5,2.4c0,1.4,1,2.3,3,2.3c1.5,0,3.1-0.6,4.2-1.6V72.7z"/>
		<path class="st0" d="M410.7,82.4h4.2c1.9,0,2.8-1.1,2.8-2.6l-0.1-2.6c-1.4,1-2.7,1.5-4.3,1.5c-3.4,0-5.5-2-5.6-5.4l-0.1-3.1
			c-0.1-3.4,2-5.4,5.4-5.4c1.6,0,3.1,0.7,4.6,1.8l0.2-1.4h1.6l0.3,14.6c0.1,2.6-1.6,4.3-4.8,4.3H411L410.7,82.4z M409.8,72.9
			c0.1,2.8,1.2,4.2,3.8,4.2c1.5,0,2.8-0.7,4.1-1.5l-0.2-7.4c-1.2-0.8-2.7-1.7-4.2-1.7c-2.6,0-3.7,1.4-3.6,4.2L409.8,72.9z"/>
		<path class="st0" d="M424.6,70.2c-0.1-2.9,2.1-5.4,5.8-5.4c3.7,0,6,2.7,6,5.4v1.5c0,0.3-0.3,0.5-0.6,0.5h-9.2v1.4
			c0,1.7,1.1,3.8,4.1,3.8c1.6,0,3-0.3,4.6-0.7l0.5,1.5c-1.7,0.5-3.3,0.8-5,0.8c-4,0-6.1-2.6-6.2-5.4L424.6,70.2z M434.4,70.8v-0.7
			c0-1.7-1.1-3.7-4-3.7c-2.8,0-3.9,2-3.8,3.7v0.7H434.4z"/>
		<path class="st0" d="M449.4,60.2h5.5c4.4,0,6.8,2.6,6.8,5.7c0.1,3.1-2.2,5.7-6.6,5.7h-3.5l0.1,7.1h-2L449.4,60.2z M455.1,69.9
			c3.4,0,4.6-2.1,4.5-4c0-2-1.4-4-4.7-4h-3.5l0.2,8H455.1z"/>
		<path class="st0" d="M466.3,59.4h2l0.3,16.8c0,0.8,0.3,1,0.9,1.1l-0.4,1.5c-1.3-0.1-2.5-0.5-2.5-2.5L466.3,59.4z"/>
		<path class="st0" d="M482.8,77.1c-1.2,1-2.8,1.7-4.6,1.7c-3,0-4.8-1.6-4.9-3.9c-0.1-2.8,2.5-3.9,6.4-3.9h2.8v-1.3
			c0-2.3-1-3.5-3.7-3.4c-1.4,0-2.7,0.2-4.1,0.6l-0.5-1.6c1.5-0.4,2.9-0.7,4.5-0.7c3.8,0,5.7,1.9,5.7,4.7l0.2,9.1H483L482.8,77.1z
			 M482.5,72.5h-2.7c-2.7,0-4.5,0.6-4.5,2.4c0,1.4,1,2.3,3,2.3c1.5,0,3.1-0.6,4.2-1.6V72.5z"/>
		<path class="st0" d="M490.2,66.4l-2.5-0.2v-1.3h2.5l-0.1-4.4h2l0.1,4.4h3.7v1.4h-3.7l0.2,8.2c0,2,1.1,2.6,2.5,2.6
			c0.7,0,1.4-0.1,2-0.2l0.3,1.6c-0.8,0.2-1.6,0.3-2.4,0.3c-2.7,0-4.5-1.4-4.5-3.9L490.2,66.4z"/>
		<path class="st0" d="M501.1,66.4l-2.5-0.2v-1.3h2.5v-2c-0.1-2.5,1.7-4,4.4-4c0.8,0,1.6,0.1,2.3,0.3l-0.3,1.6
			c-0.7-0.1-1.3-0.2-2-0.2c-1.4,0-2.5,0.6-2.4,2.6V65h3.6v1.4h-3.6l0.2,11.6c0,0.3-0.2,0.5-0.6,0.5h-1.4L501.1,66.4z"/>
		<path class="st0" d="M509.8,70.5c-0.1-3.6,2.2-5.9,6-5.9s6.2,2.2,6.3,5.9l0.1,2.4c0.1,3.7-2.2,5.9-6,5.9c-3.9,0-6.2-2.2-6.3-5.9
			L509.8,70.5z M511.9,72.7c0.1,2.7,1.2,4.5,4.2,4.5s4.1-1.8,4-4.5v-2c-0.1-2.7-1.2-4.5-4.2-4.5s-4.1,1.8-4,4.5V72.7z"/>
		<path class="st0" d="M527,64.9h1.6l0.3,2c0.9-1.2,2.4-2.3,4-2.3c0.5,0,0.9,0.1,1.4,0.2l-0.3,1.6c-0.4-0.1-0.8-0.1-1.2-0.1
			c-1.3,0-2.9,1.2-3.8,2.5l0.2,9.8h-2L527,64.9z"/>
		<path class="st0" d="M538.3,64.9h1.6l0.3,1.4c1.2-0.9,2.7-1.8,4.3-1.8c2.2,0,3.6,0.7,4.3,2c1.3-1,3-2,4.8-2c3.3,0,5,1.8,5.1,4.5
			l0.2,8.8c0,0.3-0.2,0.5-0.6,0.5h-1.4l-0.2-8.9c0-2.2-0.8-3.4-3.3-3.4c-1.4,0-2.8,0.8-4,1.7c0.1,0.4,0.2,0.8,0.2,1.2l0.2,9.3h-2
			l-0.2-8.9c0-2.2-0.8-3.4-3.3-3.4c-1.5,0-2.8,0.9-3.9,1.7l0.2,10.5h-2L538.3,64.9z"/>
	</g>
</g>
</svg>
